PathFileType	4	(x/y/z)	S05_SL_Cal_T01
DataRate	CameraRate	NumFrames	NumMarkers	Units	OrigDataRate	OrigDataStartFrame	OrigNumFrames
240	240	9	50	mm	240	2101	2400
Frame#	Time	Sternum			R.Acromium			L.Acromium			Top.Head			R.ASIS			L.ASIS			R.PSIS			L.PSIS			R.Great.Tro			L.Great.Tro			R.Iliac.Crest			L.Iliac.Crest			V.Sacral			R.Thigh.Upper.Post			R.Thigh.Lower.Ant			R.Thigh.Lower.Post			R.Thigh.Upper.Ant			R.Knee.Lat			R.Knee.Med			R.Shank.Upper.Post			R.Shank.Lower.Ant			R.Shank.Lower.Post			R.Shank.Upper.Ant			R.Ankle.Lat			R.Ankle.Med			R.Heel.Upper			R.Heel.Med			R.Heel.Lat			R.Toe.Lat			R.Toe.Med			R.Toe.Tip			L.Thigh.Upper.Post			L.Thigh.Lower.Ant			L.Thigh.Lower.Post			L.Thigh.Upper.Ant			L.Knee.Lat			L.Shank.Upper.Post			L.Shank.Lower.Ant			L.Shank.Lower.Post			L.Shank.Upper.Ant			L.Ankle.Lat			L.Ankle.Med			L.Heel.Upper			L.Heel.Med			L.Heel.Lat			L.Toe.Lat			L.Toe.Med			L.Toe.Tip			Cervical.Spine			Back			
		X1	Y1	Z1	X2	Y2	Z2	X3	Y3	Z3	X4	Y4	Z4	X5	Y5	Z5	X6	Y6	Z6	X7	Y7	Z7	X8	Y8	Z8	X9	Y9	Z9	X10	Y10	Z10	X11	Y11	Z11	X12	Y12	Z12	X13	Y13	Z13	X14	Y14	Z14	X15	Y15	Z15	X16	Y16	Z16	X17	Y17	Z17	X18	Y18	Z18	X19	Y19	Z19	X20	Y20	Z20	X21	Y21	Z21	X22	Y22	Z22	X23	Y23	Z23	X24	Y24	Z24	X25	Y25	Z25	X26	Y26	Z26	X27	Y27	Z27	X28	Y28	Z28	X29	Y29	Z29	X30	Y30	Z30	X31	Y31	Z31	X32	Y32	Z32	X33	Y33	Z33	X34	Y34	Z34	X35	Y35	Z35	X36	Y36	Z36	X37	Y37	Z37	X38	Y38	Z38	X39	Y39	Z39	X40	Y40	Z40	X41	Y41	Z41	X42	Y42	Z42	X43	Y43	Z43	X44	Y44	Z44	X45	Y45	Z45	X46	Y46	Z46	X47	Y47	Z47	X48	Y48	Z48	X49	Y49	Z49	X50	Y50	Z50	

2101	8.75	542.89	1284.1	337.11	432.23	1531.8	496.86	417.62	1544.6	157.62	415.91	1850.3	337.01	491.1	1016.3	465.61	504.88	1023.8	214.33	295.66	1050.5	370.42	301.61	1053	279.22	399.25	941.76	521.51	409.06	950.43	137.29	404.66	1105.8	500.14	417.07	1105.8	165.61	283.16	1014.9	335.29	428.51	718.88	529.01	470.56	637.95	482.01	404.23	632.67	512.54	491.31	723.69	499	387.6	537.75	494.37	382.28	513.19	364.91	298.84	303.38	511.15	360.83	236.67	512.33	295.69	226.63	500.06	363.41	314.44	520.38	347.28	125.78	504.74	349.14	140.33	417.08	272.62	75.355	456.55	280.75	41.861	429.61	283.26	48.971	494.51	452.15	37.328	534.31	478.8	40.345	412.34	546.14	56.84	452.73	387.98	716.13	125.72	457.81	632.99	146.93	386.9	620.91	137.42	465.94	723.36	135.15	388.16	528.46	139.54	316.09	333.81	121.07	381.24	273.32	123.49	311.43	261.16	134.22	381.75	344.23	116.52	340.37	117.18	133.29	368.45	128.22	221.41	278.53	68.857	178.51	289.16	44.071	210.96	283.53	41.661	149.9	468.21	39.535	103.85	486.15	50.331	224.03	553.11	58.886	171.76	371.39	1580.3	334.73	281.89	1296.5	331.78
2102	8.7542	542.91	1284.1	337.11	432.26	1531.8	496.86	417.65	1544.6	157.62	415.95	1850.3	337.02	491.11	1016.3	465.61	504.88	1023.8	214.32	295.67	1050.5	370.42	301.62	1053	279.22	399.26	941.76	521.5	409.06	950.44	137.28	404.67	1105.8	500.14	417.07	1105.8	165.6	283.16	1014.9	335.29	428.52	718.88	529	470.56	637.95	482.01	404.22	632.67	512.54	491.31	723.69	499	387.59	537.75	494.37	382.27	513.19	364.91	298.84	303.38	511.15	360.83	236.67	512.33	295.69	226.63	500.06	363.41	314.45	520.38	347.28	125.78	504.74	349.14	140.33	417.08	272.62	75.357	456.55	280.75	41.862	429.61	283.26	48.972	494.51	452.15	37.328	534.31	478.8	40.344	412.34	546.14	56.837	452.73	387.97	716.13	125.72	457.81	632.99	146.93	386.9	620.91	137.41	465.93	723.36	135.15	388.16	528.46	139.53	316.09	333.81	121.07	381.24	273.32	123.48	311.43	261.16	134.22	381.75	344.23	116.52	340.37	117.18	133.29	368.45	128.22	221.41	278.53	68.857	178.51	289.16	44.071	210.96	283.53	41.662	149.9	468.21	39.534	103.85	486.15	50.33	224.03	553.11	58.885	171.76	371.41	1580.3	334.73	281.91	1296.5	331.79
2103	8.7583	542.94	1284.1	337.11	432.29	1531.8	496.86	417.68	1544.6	157.61	415.99	1850.3	337.03	491.12	1016.3	465.6	504.89	1023.8	214.32	295.68	1050.5	370.42	301.63	1053	279.22	399.27	941.76	521.5	409.07	950.44	137.28	404.68	1105.8	500.14	417.08	1105.8	165.6	283.17	1014.9	335.29	428.52	718.88	529	470.56	637.94	482	404.22	632.67	512.53	491.31	723.69	498.99	387.59	537.75	494.37	382.26	513.19	364.91	298.84	303.38	511.15	360.83	236.67	512.33	295.69	226.64	500.06	363.41	314.45	520.38	347.28	125.78	504.74	349.14	140.34	417.08	272.62	75.358	456.55	280.75	41.863	429.61	283.26	48.972	494.51	452.15	37.327	534.31	478.8	40.342	412.34	546.14	56.834	452.73	387.97	716.14	125.72	457.8	632.99	146.93	386.9	620.91	137.41	465.93	723.36	135.14	388.16	528.46	139.53	316.09	333.81	121.07	381.24	273.33	123.48	311.43	261.17	134.21	381.75	344.23	116.52	340.37	117.18	133.29	368.45	128.22	221.41	278.53	68.857	178.51	289.16	44.072	210.96	283.53	41.664	149.9	468.21	39.534	103.85	486.15	50.33	224.03	553.11	58.884	171.76	371.44	1580.3	334.73	281.93	1296.5	331.79
2104	8.7625	542.96	1284.1	337.1	432.32	1531.8	496.85	417.71	1544.6	157.61	416.04	1850.3	337.04	491.13	1016.3	465.6	504.9	1023.8	214.31	295.69	1050.5	370.42	301.64	1053	279.22	399.28	941.76	521.5	409.07	950.44	137.28	404.69	1105.8	500.14	417.09	1105.8	165.6	283.18	1014.9	335.29	428.52	718.88	529	470.56	637.94	482	404.22	632.67	512.53	491.31	723.68	498.99	387.59	537.75	494.36	382.26	513.19	364.91	298.84	303.38	511.15	360.83	236.68	512.33	295.69	226.64	500.06	363.41	314.45	520.37	347.28	125.78	504.74	349.14	140.34	417.08	272.62	75.359	456.55	280.75	41.864	429.61	283.27	48.973	494.51	452.15	37.326	534.31	478.8	40.341	412.34	546.14	56.832	452.73	387.97	716.14	125.71	457.8	632.99	146.92	386.89	620.91	137.41	465.93	723.36	135.14	388.15	528.46	139.53	316.09	333.81	121.07	381.23	273.34	123.48	311.42	261.17	134.21	381.75	344.23	116.52	340.37	117.18	133.29	368.45	128.22	221.41	278.53	68.857	178.51	289.16	44.072	210.96	283.53	41.665	149.9	468.21	39.533	103.85	486.15	50.329	224.03	553.11	58.883	171.76	371.46	1580.3	334.73	281.95	1296.5	331.79
2105	8.7667	542.99	1284.1	337.1	432.35	1531.8	496.85	417.74	1544.6	157.6	416.08	1850.3	337.05	491.14	1016.3	465.6	504.9	1023.8	214.31	295.7	1050.6	370.42	301.65	1053.1	279.22	399.28	941.76	521.5	409.08	950.44	137.27	404.71	1105.8	500.13	417.09	1105.8	165.6	283.19	1014.9	335.28	428.52	718.88	529	470.56	637.94	482	404.22	632.67	512.53	491.31	723.68	498.98	387.58	537.75	494.36	382.25	513.19	364.9	298.83	303.38	511.15	360.83	236.68	512.33	295.69	226.64	500.06	363.41	314.46	520.37	347.28	125.78	504.74	349.14	140.34	417.08	272.62	75.36	456.55	280.75	41.864	429.61	283.27	48.973	494.51	452.15	37.324	534.31	478.8	40.34	412.34	546.14	56.83	452.73	387.97	716.14	125.71	457.79	632.99	146.92	386.89	620.91	137.41	465.93	723.36	135.14	388.15	528.46	139.52	316.09	333.81	121.06	381.23	273.34	123.47	311.42	261.17	134.21	381.75	344.23	116.52	340.37	117.19	133.29	368.45	128.22	221.41	278.53	68.857	178.51	289.16	44.073	210.96	283.53	41.667	149.9	468.21	39.532	103.85	486.15	50.328	224.03	553.11	58.882	171.76	371.49	1580.3	334.73	281.97	1296.5	331.8
2106	8.7708	543.02	1284.1	337.1	432.38	1531.8	496.85	417.77	1544.6	157.6	416.13	1850.3	337.06	491.15	1016.3	465.59	504.91	1023.8	214.31	295.72	1050.6	370.42	301.66	1053.1	279.22	399.29	941.76	521.49	409.08	950.45	137.27	404.72	1105.8	500.13	417.1	1105.8	165.6	283.2	1014.9	335.28	428.52	718.88	528.99	470.55	637.94	481.99	404.22	632.67	512.53	491.31	723.68	498.98	387.58	537.75	494.36	382.25	513.19	364.9	298.83	303.38	511.15	360.83	236.68	512.33	295.69	226.64	500.06	363.4	314.46	520.37	347.29	125.78	504.74	349.14	140.34	417.08	272.62	75.361	456.55	280.75	41.865	429.6	283.27	48.974	494.51	452.15	37.322	534.31	478.8	40.338	412.34	546.14	56.829	452.73	387.96	716.14	125.71	457.79	632.99	146.92	386.88	620.92	137.4	465.93	723.36	135.13	388.15	528.47	139.52	316.08	333.82	121.06	381.23	273.35	123.47	311.42	261.18	134.2	381.74	344.24	116.52	340.37	117.19	133.29	368.45	128.23	221.41	278.53	68.858	178.51	289.16	44.074	210.96	283.53	41.668	149.9	468.21	39.532	103.85	486.15	50.328	224.03	553.11	58.881	171.76	371.51	1580.3	334.73	281.99	1296.5	331.8
2107	8.775	543.04	1284.1	337.1	432.41	1531.8	496.85	417.81	1544.6	157.59	416.18	1850.3	337.07	491.16	1016.3	465.59	504.92	1023.8	214.31	295.73	1050.6	370.42	301.67	1053.1	279.22	399.3	941.76	521.49	409.09	950.45	137.27	404.73	1105.8	500.13	417.11	1105.8	165.6	283.21	1015	335.28	428.52	718.88	528.99	470.55	637.93	481.99	404.21	632.67	512.53	491.31	723.68	498.98	387.58	537.75	494.35	382.24	513.2	364.9	298.83	303.39	511.15	360.83	236.68	512.33	295.69	226.64	500.06	363.4	314.46	520.37	347.29	125.78	504.74	349.14	140.34	417.08	272.62	75.362	456.55	280.75	41.865	429.6	283.27	48.974	494.51	452.15	37.32	534.31	478.8	40.337	412.34	546.14	56.827	452.73	387.96	716.14	125.71	457.78	632.99	146.91	386.88	620.92	137.4	465.93	723.36	135.13	388.14	528.47	139.52	316.08	333.82	121.06	381.23	273.35	123.46	311.42	261.18	134.2	381.74	344.24	116.51	340.37	117.19	133.29	368.46	128.23	221.41	278.53	68.859	178.52	289.16	44.074	210.97	283.53	41.67	149.9	468.21	39.531	103.85	486.15	50.327	224.03	553.11	58.879	171.76	371.54	1580.4	334.73	282.01	1296.5	331.81
2108	8.7792	543.07	1284.1	337.11	432.43	1531.8	496.85	417.84	1544.6	157.59	416.23	1850.3	337.08	491.17	1016.3	465.59	504.93	1023.8	214.3	295.74	1050.6	370.42	301.69	1053.1	279.22	399.31	941.76	521.49	409.09	950.45	137.27	404.75	1105.8	500.14	417.12	1105.9	165.6	283.22	1015	335.28	428.52	718.88	528.99	470.55	637.93	481.98	404.21	632.67	512.52	491.31	723.68	498.97	387.58	537.75	494.35	382.24	513.2	364.9	298.83	303.39	511.14	360.83	236.68	512.33	295.69	226.64	500.05	363.4	314.46	520.37	347.29	125.78	504.74	349.14	140.34	417.08	272.62	75.363	456.55	280.75	41.866	429.6	283.27	48.974	494.51	452.15	37.318	534.31	478.8	40.335	412.34	546.14	56.826	452.73	387.96	716.15	125.7	457.78	632.99	146.91	386.87	620.92	137.4	465.92	723.36	135.13	388.14	528.47	139.51	316.08	333.82	121.06	381.23	273.36	123.46	311.42	261.18	134.2	381.74	344.24	116.51	340.37	117.19	133.29	368.46	128.23	221.41	278.54	68.86	178.52	289.16	44.075	210.97	283.53	41.672	149.9	468.21	39.53	103.85	486.15	50.326	224.03	553.11	58.878	171.76	371.56	1580.4	334.72	282.03	1296.5	331.81
2109	8.7833	543.1	1284.1	337.11	432.46	1531.8	496.85	417.88	1544.6	157.58	416.29	1850.3	337.08	491.18	1016.3	465.59	504.94	1023.8	214.3	295.75	1050.6	370.42	301.7	1053.1	279.22	399.32	941.76	521.49	409.1	950.45	137.26	404.76	1105.8	500.14	417.13	1105.9	165.6	283.23	1015	335.28	428.52	718.88	528.99	470.55	637.92	481.98	404.21	632.67	512.52	491.31	723.67	498.97	387.57	537.75	494.35	382.23	513.2	364.89	298.83	303.39	511.14	360.83	236.68	512.33	295.69	226.64	500.05	363.4	314.47	520.37	347.29	125.78	504.74	349.14	140.34	417.08	272.63	75.363	456.55	280.75	41.866	429.6	283.27	48.974	494.51	452.15	37.315	534.31	478.8	40.333	412.34	546.15	56.825	452.73	387.96	716.15	125.7	457.78	632.99	146.9	386.87	620.92	137.39	465.92	723.36	135.12	388.14	528.47	139.51	316.08	333.82	121.05	381.23	273.36	123.46	311.41	261.18	134.19	381.74	344.24	116.51	340.37	117.19	133.29	368.46	128.23	221.41	278.54	68.862	178.52	289.16	44.076	210.97	283.53	41.674	149.9	468.21	39.529	103.85	486.15	50.325	224.02	553.11	58.876	171.76	371.58	1580.4	334.72	282.05	1296.5	331.82
